<?xml version="1.0" encoding="UTF-8"?>
<svg xmlns="http://www.w3.org/2000/svg" id="Layer_1" data-name="Layer 1" viewBox="0 0 24 24">
  <path d="m1.971,7h1.011l.002,1c0,3.309,2.691,6,6,6s6-2.691,6-6.001l-.002-.999h.988c.276,0,.5-.224.5-.5s-.224-.5-.5-.5h-.99v-.51c-.006-3.027-2.474-5.49-5.501-5.49h-1c-1.471,0-2.853.573-3.892,1.614-1.04,1.041-1.611,2.424-1.608,3.896v.49s-1.008,0-1.008,0c-.276,0-.5.224-.5.5s.224.5.5.5Zm12.013,1c0,2.757-2.243,5-5,5s-5-2.243-5-5.001l-.002-.999h10l.002,1ZM3.979,5.508c-.002-1.203.465-2.336,1.316-3.188.48-.481,1.055-.824,1.676-1.045v2.725c0,.276.224.5.5.5s.5-.224.5-.5V1.05c.169-.019.336-.05.508-.05h1c.168,0,.328.032.492.05v2.95c0,.276.224.5.5.5s.5-.224.5-.5V1.274c1.744.619,3.005,2.267,3.008,4.218v.508s-9.999,0-9.999,0v-.492Zm8.313,11.206c-1.041-.474-2.154-.714-3.308-.714-4.233,0-7.741,3.307-7.986,7.529-.015.266-.236.471-.499.471-.01,0-.02,0-.029,0-.276-.016-.486-.252-.47-.528.275-4.75,4.222-8.471,8.984-8.471,1.298,0,2.55.271,3.722.804.251.114.362.411.248.662-.114.252-.41.361-.662.248Zm10.207-2.714h-4c-.827,0-1.5.673-1.5,1.5v1.5h-1.5c-.827,0-1.5.673-1.5,1.5v1.5h-1.5c-.827,0-1.5.673-1.5,1.5v1c0,.827.673,1.5,1.5,1.5h10c.827,0,1.5-.673,1.5-1.5v-7c0-.827-.673-1.5-1.5-1.5Zm.5,4v2h-2v-2h2Zm-5-2.5c0-.275.225-.5.5-.5h4c.275,0,.5.225.5.5v1.5h-5v-1.5Zm-3,3c0-.275.225-.5.5-.5h4.5v2h-5v-1.5Zm-3,4v-1c0-.275.224-.5.5-.5h4.5v2h-4.5c-.276,0-.5-.225-.5-.5Zm11,0c0,.275-.225.5-.5.5h-4.5v-2h5v1.5Z"/>
</svg>
